<?xml version="1.0" encoding="UTF-8" standalone="no"?>
<!-- Created with Inkscape (http://www.inkscape.org/) -->

<svg
   xmlns:dc="http://purl.org/dc/elements/1.1/"
   xmlns:cc="http://creativecommons.org/ns#"
   xmlns:rdf="http://www.w3.org/1999/02/22-rdf-syntax-ns#"
   xmlns:svg="http://www.w3.org/2000/svg"
   xmlns="http://www.w3.org/2000/svg"
   xmlns:sodipodi="http://sodipodi.sourceforge.net/DTD/sodipodi-0.dtd"
   xmlns:inkscape="http://www.inkscape.org/namespaces/inkscape"
   width="210mm"
   height="210mm"
   viewBox="0 0 210 210"
   version="1.1"
   id="svg8"
   inkscape:version="0.92.3 (2405546, 2018-03-11)"
   sodipodi:docname="craft-pay-icon-mask.svg">
  <defs
     id="defs2">
	

		
		
		
		
		
		
		
		
		
		
		
		
		
		
		
		
	
	
</defs>
  <sodipodi:namedview
     id="base"
     pagecolor="#ffffff"
     bordercolor="#666666"
     borderopacity="1.0"
     inkscape:pageopacity="0.0"
     inkscape:pageshadow="2"
     inkscape:zoom="0.25"
     inkscape:cx="-1077.5043"
     inkscape:cy="348.62709"
     inkscape:document-units="mm"
     inkscape:current-layer="layer1"
     showgrid="false"
     inkscape:window-width="1920"
     inkscape:window-height="1017"
     inkscape:window-x="1358"
     inkscape:window-y="-8"
     inkscape:window-maximized="1"
     showguides="false"
     inkscape:guide-bbox="true"
     inkscape:snap-to-guides="true">
    <sodipodi:guide
       position="48.923686,58.652296"
       orientation="0.70710678,0.70710678"
       id="guide4675"
       inkscape:locked="false" />
    <sodipodi:guide
       position="158.88229,60.589582"
       orientation="0.70710678,0.70710678"
       id="guide4677"
       inkscape:locked="false" />
    <sodipodi:guide
       position="183.88541,73.15729"
       orientation="0.70710678,0.70710678"
       id="guide4681"
       inkscape:locked="false" />
    <sodipodi:guide
       position="97.847372,76.893441"
       orientation="0.70710678,0.70710678"
       id="guide7345"
       inkscape:locked="false" />
    <sodipodi:guide
       position="56.874954,72.216225"
       orientation="0.70710678,0.70710678"
       id="guide7347"
       inkscape:locked="false" />
    <sodipodi:guide
       position="317.3677,77.985936"
       orientation="0.70710678,0.70710678"
       id="guide7707"
       inkscape:locked="false" />
    <sodipodi:guide
       position="288.92499,69.056248"
       orientation="0.70710678,0.70710678"
       id="guide7709"
       inkscape:locked="false" />
  </sodipodi:namedview>
  <metadata
     id="metadata5">
    <rdf:RDF>
      <cc:Work
         rdf:about="">
        <dc:format>image/svg+xml</dc:format>
        <dc:type
           rdf:resource="http://purl.org/dc/dcmitype/StillImage" />
        <dc:title></dc:title>
      </cc:Work>
    </rdf:RDF>
  </metadata>
  <g
     inkscape:label="Capa 1"
     inkscape:groupmode="layer"
     id="layer1"
     transform="translate(0,-87)">
    <path
       style="fill:none;stroke:none;stroke-width:0.26458332px;stroke-linecap:butt;stroke-linejoin:miter;stroke-opacity:1"
       d="M 151.98202,212.61841 63.863257,124.49964 11.992921,173.75074 199.97027,260.60665 Z"
       id="path4753"
       inkscape:connector-curvature="0" />
    <g
       id="g4852" />
    <g
       style="fill:#f5f3f3;fill-opacity:1"
       id="g4683"
       transform="matrix(2.2016797,0,0,2.2016797,26.695054,123.46292)">
</g>
    <g
       style="fill:#f5f3f3;fill-opacity:1"
       id="g4685"
       transform="matrix(2.2016797,0,0,2.2016797,26.695054,123.46292)">
</g>
    <g
       style="fill:#f5f3f3;fill-opacity:1"
       id="g4687"
       transform="matrix(2.2016797,0,0,2.2016797,26.695054,123.46292)">
</g>
    <g
       style="fill:#f5f3f3;fill-opacity:1"
       id="g4689"
       transform="matrix(2.2016797,0,0,2.2016797,26.695054,123.46292)">
</g>
    <g
       style="fill:#f5f3f3;fill-opacity:1"
       id="g4691"
       transform="matrix(2.2016797,0,0,2.2016797,26.695054,123.46292)">
</g>
    <g
       style="fill:#f5f3f3;fill-opacity:1"
       id="g4693"
       transform="matrix(2.2016797,0,0,2.2016797,26.695054,123.46292)">
</g>
    <g
       style="fill:#f5f3f3;fill-opacity:1"
       id="g4695"
       transform="matrix(2.2016797,0,0,2.2016797,26.695054,123.46292)">
</g>
    <g
       style="fill:#f5f3f3;fill-opacity:1"
       id="g4697"
       transform="matrix(2.2016797,0,0,2.2016797,26.695054,123.46292)">
</g>
    <g
       style="fill:#f5f3f3;fill-opacity:1"
       id="g4699"
       transform="matrix(2.2016797,0,0,2.2016797,26.695054,123.46292)">
</g>
    <g
       style="fill:#f5f3f3;fill-opacity:1"
       id="g4701"
       transform="matrix(2.2016797,0,0,2.2016797,26.695054,123.46292)">
</g>
    <g
       style="fill:#f5f3f3;fill-opacity:1"
       id="g4703"
       transform="matrix(2.2016797,0,0,2.2016797,26.695054,123.46292)">
</g>
    <g
       style="fill:#f5f3f3;fill-opacity:1"
       id="g4705"
       transform="matrix(2.2016797,0,0,2.2016797,26.695054,123.46292)">
</g>
    <g
       style="fill:#f5f3f3;fill-opacity:1"
       id="g4707"
       transform="matrix(2.2016797,0,0,2.2016797,26.695054,123.46292)">
</g>
    <g
       style="fill:#f5f3f3;fill-opacity:1"
       id="g4709"
       transform="matrix(2.2016797,0,0,2.2016797,26.695054,123.46292)">
</g>
    <g
       style="fill:#f5f3f3;fill-opacity:1"
       id="g4711"
       transform="matrix(2.2016797,0,0,2.2016797,26.695054,123.46292)">
</g>
    <g
       id="g7526"
       style="fill:#f5f3f3;fill-opacity:1"
       transform="matrix(0.30621649,0,0,0.30621649,36.453327,118.26223)">
</g>
    <g
       id="g7528"
       style="fill:#f5f3f3;fill-opacity:1"
       transform="matrix(0.30621649,0,0,0.30621649,36.453327,118.26223)">
</g>
    <g
       id="g7530"
       style="fill:#f5f3f3;fill-opacity:1"
       transform="matrix(0.30621649,0,0,0.30621649,36.453327,118.26223)">
</g>
    <g
       id="g7532"
       style="fill:#f5f3f3;fill-opacity:1"
       transform="matrix(0.30621649,0,0,0.30621649,36.453327,118.26223)">
</g>
    <g
       id="g7534"
       style="fill:#f5f3f3;fill-opacity:1"
       transform="matrix(0.30621649,0,0,0.30621649,36.453327,118.26223)">
</g>
    <g
       id="g7536"
       style="fill:#f5f3f3;fill-opacity:1"
       transform="matrix(0.30621649,0,0,0.30621649,36.453327,118.26223)">
</g>
    <g
       id="g7538"
       style="fill:#f5f3f3;fill-opacity:1"
       transform="matrix(0.30621649,0,0,0.30621649,36.453327,118.26223)">
</g>
    <g
       id="g7540"
       style="fill:#f5f3f3;fill-opacity:1"
       transform="matrix(0.30621649,0,0,0.30621649,36.453327,118.26223)">
</g>
    <g
       id="g7542"
       style="fill:#f5f3f3;fill-opacity:1"
       transform="matrix(0.30621649,0,0,0.30621649,36.453327,118.26223)">
</g>
    <g
       id="g7544"
       style="fill:#f5f3f3;fill-opacity:1"
       transform="matrix(0.30621649,0,0,0.30621649,36.453327,118.26223)">
</g>
    <g
       id="g7546"
       style="fill:#f5f3f3;fill-opacity:1"
       transform="matrix(0.30621649,0,0,0.30621649,36.453327,118.26223)">
</g>
    <g
       id="g7548"
       style="fill:#f5f3f3;fill-opacity:1"
       transform="matrix(0.30621649,0,0,0.30621649,36.453327,118.26223)">
</g>
    <g
       id="g7550"
       style="fill:#f5f3f3;fill-opacity:1"
       transform="matrix(0.30621649,0,0,0.30621649,36.453327,118.26223)">
</g>
    <g
       id="g7552"
       style="fill:#f5f3f3;fill-opacity:1"
       transform="matrix(0.30621649,0,0,0.30621649,36.453327,118.26223)">
</g>
    <g
       id="g7554"
       style="fill:#f5f3f3;fill-opacity:1"
       transform="matrix(0.30621649,0,0,0.30621649,36.453327,118.26223)">
</g>
    <path
       id="path11328"
       d="m 6.6293714,156.78001 v -16.62032 c 0,-9.17441 7.4456746,-16.62032 16.6200866,-16.62032 H 189.45278 c 9.1744,0 16.62041,7.44591 16.62041,16.62032 v 16.62032 z M 206.07319,181.71047 v 58.17108 c 0,9.1744 -7.44601,16.62034 -16.62041,16.62034 H 23.249458 c -9.174412,0 -16.6200866,-7.44594 -16.6200866,-16.62034 V 181.71047 Z M 81.420765,223.26124 H 31.559833 v 8.31017 H 81.420765 Z M 106.35128,206.64093 H 31.559833 v 8.31016 h 74.791447 z m 74.79144,0 h -24.93047 v 8.31016 h 24.93047 z"
       inkscape:connector-curvature="0"
       style="fill:#ffffff;fill-opacity:1;stroke-width:8.31015491" />
  </g>
</svg>
