<svg xmlns="http://www.w3.org/2000/svg" width="24" height="24" viewBox="0 0 24 24"><path d="M15.827 12.506c0 .672-.31 1.175-.771 1.175-.293 0-.468-.106-.589-.237l-.007-1.855c.13-.143.31-.247.596-.247.456-.001.771.51.771 1.164zm3.36-1.253c-.312 0-.659.236-.659.798h1.291c0-.562-.325-.798-.632-.798zm4.813-5.253v12c0 1.104-.896 2-2 2h-20c-1.104 0-2-.896-2-2v-12c0-1.104.896-2 2-2h20c1.104 0 2 .896 2 2zm-17.829 7.372c0-1.489-1.909-1.222-1.909-1.784 0-.195.162-.271.424-.271.38 0 .862.116 1.242.321v-1.176c-.414-.165-.827-.228-1.241-.228-1.012.001-1.687.53-1.687 1.414 0 1.382 1.898 1.158 1.898 1.754 0 .231-.201.305-.479.305-.414 0-.947-.171-1.366-.399v1.192c.464.2.935.283 1.365.283 1.038.001 1.753-.512 1.753-1.411zm2.422-3.054h-.949l-.001-1.084-1.219.259-.005 4.006c0 .739.556 1.285 1.297 1.285.408 0 .71-.074.876-.165v-1.016c-.16.064-.948.293-.948-.443v-1.776h.948v-1.066zm2.596 0c-.166-.06-.75-.169-1.042.369l-.078-.369h-1.079v4.377h1.248v-2.967c.295-.388.793-.313.952-.262v-1.148zm1.554 0h-1.253v4.377h1.253v-4.377zm0-1.664l-1.253.266v1.017l1.253-.266v-1.017zm4.314 3.824c0-1.454-.826-2.244-1.703-2.243-.489 0-.805.23-.978.392l-.065-.309h-1.099v5.828l1.249-.265.003-1.413c.179.131.446.316.883.316.893 0 1.71-.719 1.71-2.306zm3.943.045c0-1.279-.619-2.288-1.805-2.288-1.188 0-1.911 1.01-1.911 2.281 0 1.506.852 2.267 2.068 2.267.597 0 1.045-.136 1.384-.324v-1.006c-.34.172-.731.276-1.227.276-.487 0-.915-.172-.971-.758h2.444l.018-.448z"/></svg>