<?xml version="1.0" encoding="UTF-8" standalone="no"?>
<!-- Created with Inkscape (http://www.inkscape.org/) -->

<svg
   xmlns:dc="http://purl.org/dc/elements/1.1/"
   xmlns:cc="http://creativecommons.org/ns#"
   xmlns:rdf="http://www.w3.org/1999/02/22-rdf-syntax-ns#"
   xmlns:svg="http://www.w3.org/2000/svg"
   xmlns="http://www.w3.org/2000/svg"
   xmlns:xlink="http://www.w3.org/1999/xlink"
   xmlns:sodipodi="http://sodipodi.sourceforge.net/DTD/sodipodi-0.dtd"
   xmlns:inkscape="http://www.inkscape.org/namespaces/inkscape"
   width="210mm"
   height="210mm"
   viewBox="0 0 210 210"
   version="1.1"
   id="svg8"
   inkscape:version="0.92.2 (5c3e80d, 2017-08-06)"
   sodipodi:docname="paypal-icon-mask.svg">
  <defs
     id="defs2">
    <linearGradient
       inkscape:collect="always"
       id="linearGradient1359">
      <stop
         style="stop-color:#ffffff;stop-opacity:1;"
         offset="0"
         id="stop1355" />
      <stop
         style="stop-color:#ffffff;stop-opacity:0.82589287"
         offset="1"
         id="stop1357" />
    </linearGradient>
    <linearGradient
       inkscape:collect="always"
       xlink:href="#linearGradient1359"
       id="linearGradient1361"
       x1="29.514975"
       y1="111.32145"
       x2="186.89114"
       y2="282.59863"
       gradientUnits="userSpaceOnUse"
       gradientTransform="matrix(1.4743358,0,0,1.4743358,-42.099675,-88.167389)" />
  </defs>
  <sodipodi:namedview
     id="base"
     pagecolor="#ffffff"
     bordercolor="#666666"
     borderopacity="1.0"
     inkscape:pageopacity="0.0"
     inkscape:pageshadow="2"
     inkscape:zoom="0.62261962"
     inkscape:cx="6.8591034"
     inkscape:cy="411.25218"
     inkscape:document-units="mm"
     inkscape:current-layer="layer1"
     showgrid="false"
     inkscape:window-width="1920"
     inkscape:window-height="1017"
     inkscape:window-x="1358"
     inkscape:window-y="-8"
     inkscape:window-maximized="1"
     showguides="false"
     inkscape:guide-bbox="true"
     inkscape:snap-to-guides="true">
    <sodipodi:guide
       position="16.57312,-19.122831"
       orientation="0.70710678,0.70710678"
       id="guide4681"
       inkscape:locked="false" />
    <sodipodi:guide
       position="155.6386,129.71654"
       orientation="0.70710678,0.70710678"
       id="guide1643"
       inkscape:locked="false" />
    <sodipodi:guide
       position="405.40402,259.2206"
       orientation="0.70710678,0.70710678"
       id="guide1035"
       inkscape:locked="false" />
    <sodipodi:guide
       position="85.840263,35.377237"
       orientation="0.70710678,0.70710678"
       id="guide1277"
       inkscape:locked="false" />
    <sodipodi:guide
       position="133.22239,66.080005"
       orientation="0.70710678,0.70710678"
       id="guide955"
       inkscape:locked="false" />
    <sodipodi:guide
       position="158.29455,94.551775"
       orientation="0.70710678,0.70710678"
       id="guide957"
       inkscape:locked="false" />
  </sodipodi:namedview>
  <metadata
     id="metadata5">
    <rdf:RDF>
      <cc:Work
         rdf:about="">
        <dc:format>image/svg+xml</dc:format>
        <dc:type
           rdf:resource="http://purl.org/dc/dcmitype/StillImage" />
        <dc:title></dc:title>
      </cc:Work>
    </rdf:RDF>
  </metadata>
  <g
     inkscape:label="Capa 1"
     inkscape:groupmode="layer"
     id="layer1"
     transform="translate(0,-87)">
    <path
       style="fill:none;stroke:none;stroke-width:0.26458332px;stroke-linecap:butt;stroke-linejoin:miter;stroke-opacity:1"
       d="m 199.24943,247.23442 -88.11876,-88.11877 -51.870336,49.2511 187.977346,86.85591 z"
       id="path4753"
       inkscape:connector-curvature="0" />
    <path
       style="fill:none;stroke:none;stroke-width:0.26458332px;stroke-linecap:butt;stroke-linejoin:miter;stroke-opacity:1"
       d="M 301.35724,333.27667 188.25936,220.1788 53.987424,274.6997 185.14739,405.85966 Z"
       id="path1631"
       inkscape:connector-curvature="0" />
    <g
       id="g964"
       transform="matrix(0.24134378,0,0,0.24134378,41.613698,130.83003)" />
    <g
       id="g966"
       transform="matrix(0.24134378,0,0,0.24134378,41.613698,130.83003)" />
    <g
       id="g968"
       transform="matrix(0.24134378,0,0,0.24134378,41.613698,130.83003)" />
    <g
       id="g970"
       transform="matrix(0.24134378,0,0,0.24134378,41.613698,130.83003)" />
    <g
       id="g972"
       transform="matrix(0.24134378,0,0,0.24134378,41.613698,130.83003)" />
    <g
       id="g974"
       transform="matrix(0.24134378,0,0,0.24134378,41.613698,130.83003)" />
    <g
       id="g976"
       transform="matrix(0.24134378,0,0,0.24134378,41.613698,130.83003)" />
    <g
       id="g978"
       transform="matrix(0.24134378,0,0,0.24134378,41.613698,130.83003)" />
    <g
       id="g980"
       transform="matrix(0.24134378,0,0,0.24134378,41.613698,130.83003)" />
    <g
       id="g982"
       transform="matrix(0.24134378,0,0,0.24134378,41.613698,130.83003)" />
    <g
       id="g984"
       transform="matrix(0.24134378,0,0,0.24134378,41.613698,130.83003)" />
    <g
       id="g986"
       transform="matrix(0.24134378,0,0,0.24134378,41.613698,130.83003)" />
    <g
       id="g988"
       transform="matrix(0.24134378,0,0,0.24134378,41.613698,130.83003)" />
    <g
       id="g990"
       transform="matrix(0.24134378,0,0,0.24134378,41.613698,130.83003)" />
    <g
       id="g992"
       transform="matrix(0.24134378,0,0,0.24134378,41.613698,130.83003)" />
    <path
       id="path910"
       d="m 189.13885,175.76096 c 0,4.31837 -0.52377,8.73363 -1.36181,13.10864 -6.82438,35.60451 -30.18185,47.90769 -60.01729,47.90769 h -4.60862 c -3.64986,0 -6.75185,2.69197 -7.31583,6.35688 l -6.46987,41.01061 c -0.57189,3.64995 -3.67403,6.341 -7.31584,6.341 H 80.005412 c -3.142249,0 -5.543267,-2.80462 -5.059842,-5.89792 l 11.167141,-71.54698 0.499412,-0.45069 h 17.363007 c 42.17886,0 68.55775,-21.09348 76.32481,-60.97586 6.54232,6.55845 8.83859,15.11517 8.83859,24.14693 z M 74.59927,210.01944 c 0.934573,-6.65498 3.698211,-9.48305 11.159071,-9.49919 l 18.208989,-0.0165 c 36.85313,0 57.99494,-16.83936 64.64204,-51.48486 6.44568,-33.30781 -16.936,-51.903608 -48.5923,-51.903608 H 60.845813 c -4.165497,0 -7.718697,3.077778 -8.363244,7.259448 C 33.919037,223.90154 28.553,254.29293 28.00514,263.56677 c -0.170532,2.91728 2.167267,5.41437 5.116238,5.41437 h 32.139728 z"
       inkscape:connector-curvature="0"
       style="fill:url(#linearGradient1361);fill-opacity:1;stroke-width:8.05708885" />
    <g
       id="g1328" />
    <g
       id="g1236"
       transform="matrix(0.72008241,0,0,0.72008241,-471.12957,11.570971)" />
    <g
       id="g1238"
       transform="matrix(0.72008241,0,0,0.72008241,-471.12957,11.570971)" />
    <g
       id="g1240"
       transform="matrix(0.72008241,0,0,0.72008241,-471.12957,11.570971)" />
    <g
       id="g1242"
       transform="matrix(0.72008241,0,0,0.72008241,-471.12957,11.570971)" />
    <g
       id="g1244"
       transform="matrix(0.72008241,0,0,0.72008241,-471.12957,11.570971)" />
    <g
       id="g1246"
       transform="matrix(0.72008241,0,0,0.72008241,-471.12957,11.570971)" />
    <g
       id="g1248"
       transform="matrix(0.72008241,0,0,0.72008241,-471.12957,11.570971)" />
    <g
       id="g1250"
       transform="matrix(0.72008241,0,0,0.72008241,-471.12957,11.570971)" />
    <g
       id="g1252"
       transform="matrix(0.72008241,0,0,0.72008241,-471.12957,11.570971)" />
    <g
       id="g1254"
       transform="matrix(0.72008241,0,0,0.72008241,-471.12957,11.570971)" />
    <g
       id="g1256"
       transform="matrix(0.72008241,0,0,0.72008241,-471.12957,11.570971)" />
    <g
       id="g1258"
       transform="matrix(0.72008241,0,0,0.72008241,-471.12957,11.570971)" />
    <g
       id="g1260"
       transform="matrix(0.72008241,0,0,0.72008241,-471.12957,11.570971)" />
    <g
       id="g1262"
       transform="matrix(0.72008241,0,0,0.72008241,-471.12957,11.570971)" />
    <g
       id="g1264"
       transform="matrix(0.72008241,0,0,0.72008241,-471.12957,11.570971)" />
  </g>
</svg>
